# xmcd
#
# Track frame offsets:
#	150
#	13589
#	28701
#	40845
#	51596
#	72172
#	85291
#	102517
#	119854
#	133696
#	152924
#	168373
#	186204
#	208923
#	227622
#	243733
#	262779
#	277861
#	294174
#	304351
#
# Disc length: 4243 seconds
#
# Revision: 1
# Processed by: cddbd v1.5.2PL0 Copyright (c) Steve Scherf et al.
# Submitted via: audiograbber 1.83.01
#
DISCID=27109114
DTITLE=Various Artist - CMT's 100 Greatest Country Duets - CD 2
DYEAR=1900
DGENRE=
TTITLE0=Willie Nelson and Waylon Jennings - Good Hearted Woman
TTITLE1=Roy Rogers and Dale Evans - Happy Trails
TTITLE2=George Jones and Tammy Wynette - Two Story House
TTITLE3=Dolly Parton and Porter Wagoner - Just Someone I Used To Know
TTITLE4=Willie Nelson and Lee Ann Womack - Mendocino County Line
TTITLE5=Dwight Yoakam and Buck Owens - Streets Of Bakersfield
TTITLE6=Roy Orbison and K.D. Lang - Crying
TTITLE7=Loretta Lynn and Jack White - Portland, Oregon
TTITLE8=Johnny Cash and June Carter Cash - If I Were A Carpenter
TTITLE9=Gram Parsons and Emmylou Harris - Hickory Wind (live)
TTITLE10=Toby Keith and Willie Nelson - Beer For My Horses
TTITLE11=Vince Gill and Patty Loveless - My Kind Of Woman, My Kind Of Man
TTITLE12=Kid Rock and Sheryl Crow - Picture
TTITLE13=Patty Loveless and George Jones - You Don't Seem To Miss Me
TTITLE14=Willie Nelson and Julio Iglesias  - To All The Girls I've Loved Be
TTITLE15=Tim McGraw and Faith Hill - Let's Make Love
TTITLE16=Dolly Parton and Vince Gill - I Will Always Love You
TTITLE17=Emmylou Harris and Don Williams - If I Needed You
TTITLE18=Jimmy Wakjely and Margaret Whiting - Slippin' Around
TTITLE19=Waylon Jennings and Jessi Colter - Storms Never Last
EXTD=
EXTT0=
EXTT1=
EXTT2=
EXTT3=
EXTT4=
EXTT5=
EXTT6=
EXTT7=
EXTT8=
EXTT9=
EXTT10=
EXTT11=
EXTT12=
EXTT13=
EXTT14=
EXTT15=
EXTT16=
EXTT17=
EXTT18=
EXTT19=
PLAYORDER=
